<svg width="605" height="580" viewBox="0 0 605 580" fill="none" xmlns="http://www.w3.org/2000/svg">
<path d="M47.9685 86.7036C51.5112 87.4851 55.8745 81.1681 62.8688 72.0247C71.3785 60.8879 81.3445 50.9438 92.5 42.4586C104.913 32.8203 115.827 27.2978 132.994 18.8969C139.858 15.5365 144.625 13.9215 150.082 11.4337C151.02 11.0039 152.257 10.3787 152.453 9.27163C152.648 8.16453 151.463 6.2499 150.473 5.36422C144.547 0.453898 136.003 -0.0931406 128.943 0.0110572C120.957 0.273091 113.055 1.72618 105.499 4.32224C75.5679 14.0387 51.6415 38.2907 45.1812 72.0247C43.5662 80.3866 43.8267 85.857 47.9685 86.7036ZM546.542 146.253C432.966 -17.5332 248.797 -39.6492 107.062 59.6773C-16.7253 146.435 -13.2086 367.972 19.1709 438.827C50.0655 506.399 116.856 574.284 277.881 579.376C420.15 583.844 488.035 534.35 536.213 492.554C630.421 410.876 621.095 253.746 546.542 146.253Z" fill="#37474F"/>
</svg>
